<svg xmlns="http://www.w3.org/2000/svg" viewBox="0 0 512 512" role="img" aria-label="조쉬">
  <rect width="512" height="512" rx="112" fill="#1c6b5a"/>
  <path fill="#ffffff" d="M146 126h220c22 0 40 18 40 40v180c0 22-18 40-40 40H146c-22 0-40-18-40-40V166c0-22 18-40 40-40Z"/>
  <path fill="#dceee9" d="M146 126h220c22 0 40 18 40 40v42H106v-42c0-22 18-40 40-40Z"/>
  <path fill="#1c6b5a" d="M168 174a18 18 0 1 0 0-36 18 18 0 0 0 0 36Zm176 0a18 18 0 1 0 0-36 18 18 0 0 0 0 36Z"/>
  <path fill="#17202a" d="M164 250h184a18 18 0 0 1 0 36H164a18 18 0 0 1 0-36Zm0 72h118a18 18 0 0 1 0 36H164a18 18 0 0 1 0-36Z"/>
  <path fill="#a95d00" d="M334 318h42a18 18 0 0 1 0 36h-42a18 18 0 0 1 0-36Z"/>
</svg>
